<svg enable-background="new 196 0 560 560" viewBox="196 0 560 560" xmlns="http://www.w3.org/2000/svg"><path d="m756 0v560h-560" fill="#fa0"/><path d="m641.5 383.7-30.3 15c-1.5.8-2.6 2.2-2.8 3.9l-4.9 33.4c-.6 4.2-5.8 5.9-8.8 2.9l-23.6-24.2c-1.2-1.2-2.9-1.8-4.6-1.5l-33.3 5.7c-4.2.7-7.4-3.7-5.4-7.5l15.8-29.8c.8-1.5.8-3.3 0-4.8l-15.7-29.9c-2-3.8 1.2-8.2 5.4-7.5l33.3 5.7c1.7.3 3.4-.3 4.6-1.5l23.6-24.2c3-3.1 8.2-1.4 8.8 2.9l4.9 33.4c.2 1.7 1.3 3.1 2.8 3.9l30.3 15c3.7 1.7 3.7 7.2-.1 9.1z" fill="#fff"/></svg>