<svg xmlns="http://www.w3.org/2000/svg" viewBox="0 0 533.5 479.4" enable-background="new 0 0 533.5 479.4"><path fill="#9F9E9E" d="M267.9 471.4c-.4 0-.8 0-1.2-.1-2.9.3-5.9-.4-8.4-2-100-60.1-171.4-123.9-212.2-189.5-44.3-71.2-42-127.6-32.4-162.5 17.9-64.3 76.9-109.3 143.6-109.3h2.6c4.7.1 9.7.4 14.7 1 47.4 5.8 75.5 27.6 92.1 50.3 16.6-22.7 44.8-44.6 92.1-50.3 5.7-.7 11.6-1 17.3-1 66.6 0 125.7 45 143.5 109.3 9.7 34.8 11.9 91.3-32.4 162.5-40.8 65.6-112.2 129.4-212.2 189.5-2.1 1.4-4.6 2.1-7.1 2.1zm-110.6-435.4c-54.1 0-102.1 36.5-116.6 88.8-11.7 42.2-1.6 90.7 29.2 140.2 37.6 60.5 103.8 119.9 196.9 176.7 92.9-56.7 159.2-116.1 196.8-176.7 30.8-49.5 40.9-98 29.2-140.2-14.6-52.2-62.5-88.8-116.6-88.8-4.7 0-9.4.3-14 .8-39.9 4.8-67.8 23.7-82.8 55.9-2.3 4.9-7.2 8.1-12.7 8.1-5.4 0-10.4-3.2-12.7-8.1-15-32.2-42.9-51.1-82.8-55.9-4.1-.5-8.1-.8-11.9-.9-.6.1-1.3.1-2 .1z"/></svg>